<svg xmlns="http://www.w3.org/2000/svg" xmlns:xlink="http://www.w3.org/1999/xlink" version="1.1" x="0px" y="0px" viewBox="0 0 60 60" style="enable-background:new 0 0 60 60;" xml:space="preserve">
<g id="Layer_1">
</g>
<g id="AW_Black">
	<g>
		<path fill="#ffffff" d="M53.3540115,42.5763359H14.6974468c-0.5450001,0-0.987833,0.4408607-0.987833,0.9869919v2.3836708    c0,0.5458412,0.4428329,0.9881248,0.987833,0.9881248h38.6565628c0.5464172,0,0.9886742-0.4422836,0.9886742-0.9881248v-2.3836708    C54.3426857,43.0171967,53.9004288,42.5763359,53.3540115,42.5763359z M37.9200249,44.8773918    c0,0.1952705-0.1573372,0.351738-0.348896,0.351738h-7.0865421c-0.1921368,0-0.3506031-0.1564674-0.3506031-0.351738V44.63377    c0-0.1941071,0.1584663-0.350605,0.3506031-0.350605h7.0865421c0.1915588,0,0.348896,0.156498,0.348896,0.350605V44.8773918z"/>
		<path fill="#ffffff" d="M31.4769402,33.5398827l-5.6408958-1.8836975l5.6408958-1.8822823v-4.4894924h4.4988251l-4.8955574-12.219533H11.0525875    v26.2511597h20.4243526V33.5398827z M27.4644966,17.9847813c0.9085865,0,1.6428833,0.7357178,1.6428833,1.6434612    c0,0.9071655-0.7342968,1.6437244-1.6428833,1.6437244c-0.9071941,0-1.6434631-0.7365589-1.6434631-1.6437244    C25.8210335,18.720499,26.5573025,17.9847813,27.4644966,17.9847813z"/>
		<path fill="#ffffff" d="M33.2890396,27.0956688v12.2203674H57V13.0648775H33.0321159l5.6204948,14.0307913H33.2890396z M47.3795166,34.0548668    l-6.2240868-3.9014969l0.833046-1.3282375l6.2238007,3.9006557L47.3795166,34.0548668z M51.3625221,27.0690708H42.342762    l-0.0045509-1.5687675h9.0180817L51.3625221,27.0690708z M47.1565208,18.5849514l0.8438263,1.3220081l-6.1926765,3.9496231    l-0.8437958-1.322298L47.1565208,18.5849514z"/>
		<path fill="#ffffff" d="M7.8567901,29.4615211H7.070713v-11.244154c0-0.3367252-0.2739053-0.6126041-0.6145997-0.6126041H6.0308108    c-0.3406944,0-0.614861,0.2758789-0.614861,0.6126041v11.244154H4.6281633C3.7314582,29.4615211,3,30.1904297,3,31.0891342    v1.135807c0,0.8992577,0.7314582,1.6304512,1.6281633,1.6304512h0.7877865v2.8211479    c0,0.3370171,0.2741666,0.6154404,0.614861,0.6154404h0.4253025c0.3406944,0,0.6145997-0.2784233,0.6145997-0.6154404v-2.8211479    h0.786077c0.8978353,0,1.6301627-0.7311935,1.6301627-1.6304512v-1.135807    C9.4869528,30.1904297,8.7546253,29.4615211,7.8567901,29.4615211z M8.6728563,32.2249413    c0,0.4493561-0.3670034,0.8157806-0.8160663,0.8157806H7.070713H5.4159498H4.6281633    c-0.4470921,0-0.8152261-0.3664246-0.8152261-0.8157806v-1.135807c0-0.4476433,0.368134-0.8140965,0.8152261-0.8140965h0.7877865    H7.070713h0.786077c0.4490628,0,0.8160663,0.3664532,0.8160663,0.8140965V32.2249413z"/>
		<path fill="#ffffff" d="M7.694643,39.2817879c0.1604376,0,0.2911749-0.1290283,0.2911749-0.2925949v-0.2023048    c0-0.1612778-0.1307373-0.2928581-0.2911749-0.2928581H4.8610396c-0.162147,0-0.2928553,0.1315804-0.2928553,0.2928581v0.2023048    c0,0.1635666,0.1307082,0.2925949,0.2928553,0.2925949H7.694643z"/>
		<path fill="#ffffff" d="M7.694643,14.4675293H6.6683302v-1.0265741c0-0.1598864-0.1287384-0.2897549-0.2917256-0.2897549H6.1742682    c-0.162118,0-0.2917252,0.1298685-0.2917252,0.2897549v1.0265741H4.8610396c-0.162147,0-0.2928553,0.1284771-0.2928553,0.2920151    v0.2020464c0,0.1621466,0.1307082,0.2917252,0.2928553,0.2917252h1.0215034v1.0234976    c0,0.1601524,0.1296072,0.2917309,0.2917252,0.2917309h0.2023363c0.1629872,0,0.2917256-0.1315784,0.2917256-0.2917309v-1.0234976    H7.694643c0.1604376,0,0.2911749-0.1295786,0.2911749-0.2917252v-0.2020464    C7.9858179,14.5960064,7.8550806,14.4675293,7.694643,14.4675293z"/>
	</g>
</g>
</svg>