<svg xmlns="http://www.w3.org/2000/svg" xmlns:xlink="http://www.w3.org/1999/xlink" version="1.1" x="0px" y="0px" viewBox="0 0 60 60" style="enable-background:new 0 0 60 60;" xml:space="preserve">
<g id="Layer_1">
</g>
<g id="AW_Black">
	<g>
		<path style="fill:#ffffff;" d="M5.9112864,31.6770077L5.0471911,30.812994    c-1.2642229,1.2816639-2.0462368,3.0392056-2.0462368,4.9774342c0,1.9382591,0.7820139,3.695385,2.0462368,4.9774628    l0.8640952-0.8640137c-1.042851-1.060318-1.6875648-2.5128021-1.6875648-4.1134491    C4.2237215,34.1898384,4.8684354,32.7373543,5.9112864,31.6770077z"/>
		<path style="fill:#ffffff;" d="M6.9607701,32.7275124c-0.7729487,0.7909966-1.251399,1.871685-1.251399,3.0629158    c0,1.1912613,0.4784503,2.2719498,1.251399,3.0629425l0.8649249-0.8639832    c-0.551909-0.5697365-0.8935566-1.3447838-0.8935566-2.1989594c0-0.8541451,0.3416476-1.6291962,0.8935566-2.1989288    L6.9607701,32.7275124z"/>
		<path style="fill:#ffffff;" d="M54.9528084,30.812994l-0.864151,0.8640137    c1.0427971,1.0603466,1.6876221,2.5128307,1.6876221,4.1134205c0,1.600647-0.644825,3.0531311-1.6876221,4.1134491    l0.864151,0.8640137c1.264225-1.2820778,2.0462379-3.0392036,2.0462379-4.9774628    C56.9990463,33.8521996,56.2170334,32.0946579,54.9528084,30.812994z"/>
		<path style="fill:#ffffff;" d="M53.0392303,32.7275124l-0.8649254,0.863987    c0.5518532,0.5697327,0.8935547,1.3447838,0.8935547,2.1989288c0,0.8541756-0.3417015,1.6292229-0.8935547,2.1989594    l0.8649254,0.8639832c0.7728386-0.7909927,1.2513428-1.8716812,1.2513428-3.0629425    C54.2905731,34.5991974,53.8120689,33.5185089,53.0392303,32.7275124z"/>
		<polygon style="fill:#ffffff;" points="19.1189632,27.3831444 16.9759426,27.0227871 19.2631721,20.9030914     25.0571957,32.0018806 27.0326805,32.0018806 20.3746738,17.9290848 17.7105865,17.9290848 12.8979511,26.3370876     10.7269068,25.9720325 13.1421509,29.8987656   "/>
		<polygon style="fill:#ffffff;" points="40.6979713,20.9030914 42.9851456,27.0227871 40.8421783,27.3831444 46.819046,29.8987656     49.2341805,25.9720325 47.0632477,26.3370876 42.2505569,17.9290848 39.5864677,17.9290848 32.928463,32.0018806     34.9038925,32.0018806   "/>
		<path style="fill:#ffffff;" d="M49.2873001,33.2052727h-3.1894646v-1.4975891    c0-1.2119331-0.9858665-2.1979351-2.1979103-2.1979351h-5.5317459c-1.2119904,0-2.1979637,0.986002-2.1979637,2.1979351v1.4975891    H10.683959c-0.6480856,0-1.1713629,0.5257645-1.1713629,1.1726074v2.8260651c0,0.6467323,0.5232773,1.1713638,1.1713629,1.1713638    h25.4862556v1.497673c0,1.2119331,0.9859734,2.1979332,2.1979637,2.1979332h5.5317459    c1.2120438,0,2.1979103-0.9860001,2.1979103-2.1979332v-1.497673h3.1894646c0.6476402,0,1.17136-0.5246315,1.17136-1.1713638    v-2.8260651C50.4586601,33.7310371,49.9349403,33.2052727,49.2873001,33.2052727z M34.076664,35.9353561    c0,0.2291946-0.1873779,0.4176483-0.4162674,0.4176483h-7.3482647c-0.2280598,0-0.4154377-0.1884537-0.4154377-0.4176483    v-0.2872276c0-0.2326202,0.1873779-0.4176521,0.4154377-0.4176521h7.3482647c0.2288895,0,0.4162674,0.1850319,0.4162674,0.4176521    V35.9353561z M45.3077507,39.872982c0,0.7761803-0.6315575,1.4076004-1.4078255,1.4076004h-5.5317459    c-0.776268,0-1.4077682-0.6314201-1.4077682-1.4076004v-8.1652985c0-0.7761822,0.6315002-1.4076023,1.4077682-1.4076023h5.5317459    c0.776268,0,1.4078255,0.6314201,1.4078255,1.4076023V39.872982z"/>
		<path style="fill:#ffffff;" d="M41.1342468,33.8749161c-1.7850151,0-3.2320824,1.447094-3.2320824,3.2322197    c0,1.7851219,1.4470673,3.2322159,3.2320824,3.2322159c1.7850113,0,3.2320786-1.447094,3.2320786-3.2322159    C44.3663254,35.32201,42.9192581,33.8749161,41.1342468,33.8749161z M41.1342468,38.3505478    c-0.6866112,0-1.2434959-0.5566635-1.2434959-1.243412c0-0.6867523,0.5568848-1.243412,1.2434959-1.243412    c0.6866646,0,1.2435493,0.5566597,1.2435493,1.243412C42.3777962,37.7938843,41.8209114,38.3505478,41.1342468,38.3505478z"/>
		<path style="fill:#ffffff;" d="M41.1342468,32.8422623c0.3640327,0,0.6597481-0.2953262,0.6597481-0.6596947    c0-0.3643627-0.2957153-0.6598015-0.6597481-0.6598015c-0.3644753,0-0.6596947,0.2954388-0.6596947,0.6598015    C40.4745522,32.546936,40.7697716,32.8422623,41.1342468,32.8422623z"/>
	</g>
</g>
</svg>